<?xml version="1.0" standalone="no"?>
<!DOCTYPE svg PUBLIC "-//W3C//DTD SVG 20010904//EN"
 "http://www.w3.org/TR/2001/REC-SVG-20010904/DTD/svg10.dtd">
<svg version="1.0" xmlns="http://www.w3.org/2000/svg"
 width="465.000000pt" height="465.000000pt" viewBox="0 0 465.000000 465.000000"
 preserveAspectRatio="xMidYMid meet">
<metadata>
Created by potrace 1.15, written by Peter Selinger 2001-2017
</metadata><g><rect x="0" y="0" width="465" height="465" fill="#ffffff" rx="52.5" />
<g transform="translate(0.000000,465.000000) scale(0.100000,-0.100000)"
fill="#4d4d4d" stroke="none">
<path d="M450 3675 l0 -525 525 0 525 0 0 525 0 525 -525 0 -525 0 0 -525z
m900 0 l0 -375 -375 0 -375 0 0 375 0 375 375 0 375 0 0 -375z"/>
<path d="M750 3675 l0 -225 225 0 225 0 0 225 0 225 -225 0 -225 0 0 -225z"/>
<path d="M2100 4125 l0 -75 -225 0 -225 0 0 -150 0 -150 75 0 75 0 0 75 0 75
75 0 75 0 0 -75 0 -75 75 0 75 0 0 -150 0 -150 -75 0 -75 0 0 75 0 75 -150 0
-150 0 0 -300 0 -300 -150 0 -150 0 0 -75 0 -75 -75 0 -75 0 0 -75 0 -75 75 0
75 0 0 -75 0 -75 -150 0 -150 0 0 225 0 225 -75 0 -75 0 0 -75 0 -75 -75 0
-75 0 0 75 0 75 -150 0 -150 0 0 -375 0 -375 75 0 75 0 0 -75 0 -75 -75 0 -75
0 0 -75 0 -75 75 0 75 0 0 -75 0 -75 -75 0 -75 0 0 -75 0 -75 225 0 225 0 0
150 0 150 75 0 75 0 0 -75 0 -75 150 0 150 0 0 -75 0 -75 150 0 150 0 0 -150
0 -150 75 0 75 0 0 -150 0 -150 -75 0 -75 0 0 -75 0 -75 150 0 150 0 0 -75 0
-75 75 0 75 0 0 -75 0 -75 -75 0 -75 0 0 -75 0 -75 75 0 75 0 0 75 0 75 75 0
75 0 0 -75 0 -75 150 0 150 0 0 75 0 75 75 0 75 0 0 -75 0 -75 150 0 150 0 0
75 0 75 150 0 150 0 0 -75 0 -75 75 0 75 0 0 75 0 75 -75 0 -75 0 0 75 0 75
150 0 150 0 0 -75 0 -75 75 0 75 0 0 75 0 75 75 0 75 0 0 150 0 150 -75 0 -75
0 0 75 0 75 75 0 75 0 0 75 0 75 75 0 75 0 0 -75 0 -75 75 0 75 0 0 225 0 225
-75 0 -75 0 0 -75 0 -75 -75 0 -75 0 0 -75 0 -75 -75 0 -75 0 0 150 0 150 75
0 75 0 0 75 0 75 75 0 75 0 0 75 0 75 75 0 75 0 0 225 0 225 -150 0 -150 0 0
-75 0 -75 -75 0 -75 0 0 75 0 75 -75 0 -75 0 0 75 0 75 -75 0 -75 0 0 75 0 75
-75 0 -75 0 0 75 0 75 150 0 150 0 0 75 0 75 -225 0 -225 0 0 -300 0 -300 -75
0 -75 0 0 75 0 75 -75 0 -75 0 0 -75 0 -75 -75 0 -75 0 0 75 0 75 -150 0 -150
0 0 150 0 150 75 0 75 0 0 75 0 75 -150 0 -150 0 0 75 0 75 75 0 75 0 0 75 0
75 75 0 75 0 0 -75 0 -75 75 0 75 0 0 -75 0 -75 75 0 75 0 0 -150 0 -150 75 0
75 0 0 150 0 150 -75 0 -75 0 0 75 0 75 75 0 75 0 0 75 0 75 -75 0 -75 0 0
150 0 150 -75 0 -75 0 0 75 0 75 -75 0 -75 0 0 -75 0 -75 -75 0 -75 0 0 150 0
150 -75 0 -75 0 0 150 0 150 -75 0 -75 0 0 -75z m300 -600 l0 -75 -75 0 -75 0
0 -150 0 -150 -75 0 -75 0 0 -75 0 -75 -75 0 -75 0 0 -75 0 -75 150 0 150 0 0
-150 0 -150 -75 0 -75 0 0 -150 0 -150 225 0 225 0 0 75 0 75 75 0 75 0 0 -75
0 -75 150 0 150 0 0 -75 0 -75 150 0 150 0 0 -75 0 -75 75 0 75 0 0 -75 0 -75
-75 0 -75 0 0 75 0 75 -75 0 -75 0 0 -75 0 -75 -75 0 -75 0 0 75 0 75 -150 0
-150 0 0 -75 0 -75 75 0 75 0 0 -75 0 -75 -225 0 -225 0 0 75 0 75 75 0 75 0
0 75 0 75 75 0 75 0 0 150 0 150 -75 0 -75 0 0 -75 0 -75 -225 0 -225 0 0 -75
0 -75 -150 0 -150 0 0 75 0 75 -75 0 -75 0 0 -150 0 -150 -150 0 -150 0 0 75
0 75 75 0 75 0 0 75 0 75 -75 0 -75 0 0 75 0 75 -150 0 -150 0 0 -75 0 -75 75
0 75 0 0 -75 0 -75 -75 0 -75 0 0 75 0 75 -75 0 -75 0 0 -75 0 -75 -150 0
-150 0 0 75 0 75 75 0 75 0 0 150 0 150 -75 0 -75 0 0 225 0 225 75 0 75 0 0
-75 0 -75 75 0 75 0 0 -225 0 -225 75 0 75 0 0 75 0 75 150 0 150 0 0 75 0 75
75 0 75 0 0 -75 0 -75 75 0 75 0 0 150 0 150 75 0 75 0 0 75 0 75 -75 0 -75 0
0 75 0 75 150 0 150 0 0 75 0 75 -75 0 -75 0 0 150 0 150 75 0 75 0 0 -150 0
-150 75 0 75 0 0 150 0 150 75 0 75 0 0 75 0 75 75 0 75 0 0 -75z m300 -75 l0
-150 75 0 75 0 0 -75 0 -75 -75 0 -75 0 0 75 0 75 -75 0 -75 0 0 150 0 150 75
0 75 0 0 -150z m-1200 -675 l0 -75 -75 0 -75 0 0 75 0 75 75 0 75 0 0 -75z
m1950 -300 l0 -75 75 0 75 0 0 -150 0 -150 75 0 75 0 0 -75 0 -75 75 0 75 0 0
150 0 150 75 0 75 0 0 -150 0 -150 -75 0 -75 0 0 -75 0 -75 -150 0 -150 0 0
150 0 150 -75 0 -75 0 0 75 0 75 -75 0 -75 0 0 150 0 150 75 0 75 0 0 -75z
m-1500 -900 l0 -75 -75 0 -75 0 0 75 0 75 75 0 75 0 0 -75z m1500 -150 l0
-225 -225 0 -225 0 0 225 0 225 225 0 225 0 0 -225z m-750 0 l0 -75 75 0 75 0
0 -150 0 -150 225 0 225 0 0 -150 0 -150 -225 0 -225 0 0 -75 0 -75 -75 0 -75
0 0 75 0 75 75 0 75 0 0 150 0 150 -75 0 -75 0 0 150 0 150 -75 0 -75 0 0 -75
0 -75 -75 0 -75 0 0 75 0 75 -150 0 -150 0 0 -150 0 -150 75 0 75 0 0 -75 0
-75 150 0 150 0 0 -75 0 -75 -75 0 -75 0 0 -75 0 -75 -75 0 -75 0 0 75 0 75
-75 0 -75 0 0 150 0 150 -75 0 -75 0 0 150 0 150 75 0 75 0 0 75 0 75 300 0
300 0 0 -75z m1050 -600 l0 -75 -75 0 -75 0 0 75 0 75 75 0 75 0 0 -75z"/>
<path d="M1800 2625 l0 -75 150 0 150 0 0 75 0 75 -150 0 -150 0 0 -75z"/>
<path d="M1350 2325 l0 -75 75 0 75 0 0 -75 0 -75 75 0 75 0 0 75 0 75 75 0
75 0 0 -75 0 -75 150 0 150 0 0 75 0 75 -150 0 -150 0 0 75 0 75 -75 0 -75 0
0 -75 0 -75 -75 0 -75 0 0 75 0 75 -75 0 -75 0 0 -75z"/>
<path d="M3150 1425 l0 -75 75 0 75 0 0 75 0 75 -75 0 -75 0 0 -75z"/>
<path d="M2400 4125 l0 -75 75 0 75 0 0 -75 0 -75 150 0 150 0 0 150 0 150
-225 0 -225 0 0 -75z"/>
<path d="M3150 3675 l0 -525 525 0 525 0 0 525 0 525 -525 0 -525 0 0 -525z
m900 0 l0 -375 -375 0 -375 0 0 375 0 375 375 0 375 0 0 -375z"/>
<path d="M3450 3675 l0 -225 225 0 225 0 0 225 0 225 -225 0 -225 0 0 -225z"/>
<path d="M3750 2925 l0 -75 150 0 150 0 0 -75 0 -75 -75 0 -75 0 0 -75 0 -75
150 0 150 0 0 150 0 150 -75 0 -75 0 0 75 0 75 -150 0 -150 0 0 -75z"/>
<path d="M450 975 l0 -525 525 0 525 0 0 525 0 525 -525 0 -525 0 0 -525z
m900 0 l0 -375 -375 0 -375 0 0 375 0 375 375 0 375 0 0 -375z"/>
<path d="M750 975 l0 -225 225 0 225 0 0 225 0 225 -225 0 -225 0 0 -225z"/>
<path d="M4050 825 l0 -75 75 0 75 0 0 75 0 75 -75 0 -75 0 0 -75z"/>
<path d="M1650 600 l0 -150 75 0 75 0 0 150 0 150 -75 0 -75 0 0 -150z"/>
<path d="M3900 525 l0 -75 150 0 150 0 0 75 0 75 -150 0 -150 0 0 -75z"/>
</g>
</g></svg>
